<svg viewBox="0 0 48 48" fill="none" xmlns="http://www.w3.org/2000/svg"><path d="M11 36H8.5C6.01 36 4 33.99 4 31.5V13.5C4 10.46 6.46 8 9.5 8H33.5C35.99 8 38 10.01 38 12.5V15H39.5C41.99 15 44 17.01 44 19.5V38.5C44 40.99 41.99 43 39.5 43H15.5C13.01 43 11 40.99 11 38.5V36ZM7 13.5V31.5C7 32.33 7.67 33 8.5 33H11V19.5C11 17.01 13.01 15 15.5 15H35V12.5C35 11.67 34.33 11 33.5 11H9.5C8.12 11 7 12.12 7 13.5ZM14 19.5V38.5C14 39.33 14.67 40 15.5 40H39.5C40.33 40 41 39.33 41 38.5V19.5C41 18.67 40.33 18 39.5 18H15.5C14.67 18 14 18.67 14 19.5Z" fill="#005AA3"></path><path d="M25.58 35C25.55 35 25.52 35 25.5 35C25.47 35 25.45 35 25.42 35C25.05 34.98 24.7 34.82 24.44 34.56L19.44 29.56C18.85 28.97 18.85 28.02 19.44 27.44C20.03 26.85 20.98 26.85 21.56 27.44L25.5 31.38L34.44 22.44C35.02 21.85 35.97 21.85 36.56 22.44C37.15 23.03 37.15 23.97 36.56 24.56L26.56 34.56C26.3 34.82 25.95 34.98 25.58 35Z" fill="#005AA3"></path></svg>