<svg viewBox="0 0 48 48" fill="none" xmlns="http://www.w3.org/2000/svg"><path d="M21.5 28C23.99 28 26 30.01 26 32.5V35.5L25.98 35.72C25.36 39.97 21.54 42.02 15.13 42.02C8.75 42.02 4.87 40 4.03 35.79L4 35.5V32.5C4 30.01 6.01 28 8.5 28H21.5ZM21.5 31H8.5C7.67 31 7 31.67 7 32.5V35.34C7.56 37.74 10.1 39.02 15.13 39.02C20.17 39.02 22.59 37.76 23 35.39V32.5C23 31.67 22.33 31 21.5 31ZM15 12C18.87 12 22 15.13 22 19C22 22.87 18.87 26 15 26C11.13 26 8 22.87 8 19C8 15.13 11.13 12 15 12ZM39.5 4C41.99 4 44 6.01 44 8.5V15.5C44 17.99 41.99 20 39.5 20H36.59L32.26 24.28C31.28 25.25 29.69 25.24 28.72 24.26C28.26 23.79 28 23.16 28 22.51L28 19.97C25.75 19.72 24 17.82 24 15.5V8.5C24 6.01 26.01 4 28.5 4H39.5ZM15 15C12.79 15 11 16.79 11 19C11 21.21 12.79 23 15 23C17.21 23 19 21.21 19 19C19 16.79 17.21 15 15 15ZM39.5 7H28.5C27.67 7 27 7.67 27 8.5V15.5C27 16.33 27.67 17 28.5 17H31L31 21.31L35.36 17H39.5C40.33 17 41 16.33 41 15.5V8.5C41 7.67 40.33 7 39.5 7Z" fill="#005AA3"></path></svg>