<svg preserveAspectRatio="none" overflow="visible" style="display: block;" width="21" height="21" viewBox="0 0 21 21" fill="none" xmlns="http://www.w3.org/2000/svg">
<g id="&#208;&#152;&#208;&#186;&#208;&#190;&#208;&#189;&#208;&#186;&#208;&#176;">
<path id="Vector" d="M10.5 18.375C14.8492 18.375 18.375 14.8492 18.375 10.5C18.375 6.15076 14.8492 2.625 10.5 2.625C6.15076 2.625 2.625 6.15076 2.625 10.5C2.625 14.8492 6.15076 18.375 10.5 18.375Z" stroke="#164194" stroke-width="1.8" stroke-linecap="round" stroke-linejoin="round"/>
<path id="Vector_2" d="M10.5 14.875C12.9162 14.875 14.875 12.9162 14.875 10.5C14.875 8.08375 12.9162 6.125 10.5 6.125C8.08375 6.125 6.125 8.08375 6.125 10.5C6.125 12.9162 8.08375 14.875 10.5 14.875Z" stroke="#164194" stroke-width="1.8" stroke-linecap="round" stroke-linejoin="round"/>
<path id="Vector_3" d="M10.5 11.725C11.1765 11.725 11.725 11.1765 11.725 10.5C11.725 9.82345 11.1765 9.275 10.5 9.275C9.82345 9.275 9.275 9.82345 9.275 10.5C9.275 11.1765 9.82345 11.725 10.5 11.725Z" stroke="#164194" stroke-width="1.8" stroke-linecap="round" stroke-linejoin="round"/>
</g>
</svg>
