<svg width="113.954" height="56.8781" viewBox="0 0 113.954 56.8781" fill="none" xmlns="http://www.w3.org/2000/svg">
<g id="Group">
<path id="Vector" d="M104.964 33.8058C104.378 34.7131 103.693 35.5312 102.966 36.3331C100.011 39.63 96.519 42.295 92.7382 44.6036C91.3018 45.4784 89.8324 46.2885 88.3382 47.0499C84.9536 48.7753 81.4534 50.209 77.8542 51.4403C74.1063 52.7363 70.2677 53.757 66.3713 54.5832C64.1506 55.053 61.9052 55.4418 59.6681 55.7578C57.6869 56.0332 55.6891 56.2843 53.6996 56.4544C52.4861 56.5597 51.2809 56.6488 50.0674 56.7136C49.3822 56.746 48.6888 56.7622 48.0036 56.7946C46.5755 56.8756 45.1556 56.8837 43.7274 56.8756C42.3406 56.8513 40.9372 56.827 39.5503 56.7622C37.792 56.665 36.0337 56.5435 34.2918 56.3329C31.8483 56.0575 29.413 55.6849 27.0025 55.1907C24.4269 54.6561 21.8844 54 19.4078 53.1495C15.8251 51.9344 12.4075 50.4034 9.26226 48.3054C7.99097 47.4549 6.78572 46.5153 5.66302 45.4622C4.30092 44.1824 3.11219 42.7567 2.16284 41.1528C1.09793 39.3627 0.404502 37.4267 0.132082 35.353C0.0577859 34.7698 0 34.1785 0 33.5952C0.0165103 32.2101 0.181613 30.8492 0.544839 29.5046C1.33733 26.6127 2.79849 24.0773 4.67241 21.7444C6.86827 19.0065 9.47689 16.6979 12.3249 14.6404C14.463 13.1014 16.7084 11.7324 19.0198 10.485C22.4375 8.65428 25.9954 7.11522 29.669 5.81106C32.4592 4.82282 35.2824 3.97229 38.1552 3.23515C41.2757 2.43322 44.4374 1.80139 47.6239 1.29107C49.5143 0.99136 51.4212 0.74835 53.3364 0.562042C54.7398 0.424337 56.1349 0.294731 57.5383 0.213728C58.8096 0.132724 60.0891 0.100323 61.3604 0.0436207C62.9867 -0.0292824 64.6212 0.0112193 66.264 0.0112193C67.4032 0.0112193 68.5506 0.0841224 69.6981 0.148925C70.9694 0.229929 72.2407 0.310932 73.512 0.440538C75.2786 0.618745 77.0369 0.837454 78.7787 1.13717C81.569 1.60699 84.3344 2.20641 87.0504 3.01645C89.6755 3.78598 92.2264 4.71752 94.6864 5.89207C97.1051 7.03421 99.3836 8.38697 101.472 10.0475C103.577 11.7162 105.352 13.636 106.698 15.9527C107.721 17.7348 108.373 19.6221 108.613 21.6634C108.712 22.4087 108.687 23.1539 108.695 23.9153C108.621 23.9396 108.555 23.9396 108.497 23.8829C108.522 23.162 108.522 22.4492 108.439 21.7282C108.175 19.6302 107.408 17.7186 106.227 15.9527C105.055 14.1706 103.561 12.6802 101.868 11.3517C99.6147 9.57772 97.1299 8.20876 94.513 7.04231C91.6733 5.78676 88.7179 4.83902 85.7048 4.08569C83.542 3.55107 81.3626 3.12175 79.1502 2.78964C77.7881 2.57903 76.4178 2.40892 75.0557 2.27931C73.8422 2.14971 72.6287 2.05251 71.4152 1.9877C70.2759 1.9148 69.1367 1.85 67.9893 1.8338C65.6118 1.80949 63.2261 1.80949 60.8568 1.9634C59.6103 2.0444 58.372 2.11731 57.1255 2.22261C55.0865 2.40082 53.0392 2.64383 51.025 2.94354C48.7301 3.28376 46.4516 3.69687 44.198 4.2153C41.0198 4.92813 37.8911 5.80296 34.8202 6.85601C32.4674 7.67414 30.156 8.58948 27.9024 9.64252C25.1947 10.9143 22.586 12.348 20.126 14.0329C17.666 15.734 15.3876 17.6295 13.4559 19.9057C11.8379 21.8011 10.5336 23.8667 9.76582 26.2401C9.13843 28.1518 8.93205 30.0959 9.21273 32.0724C9.48515 34.0732 10.2364 35.9038 11.3508 37.6049C12.6469 39.5733 14.3309 41.2014 16.2213 42.6271C18.1695 44.0933 20.3076 45.2921 22.5283 46.3209C24.6663 47.301 26.8622 48.1029 29.1076 48.7753C31.1879 49.4071 33.3012 49.9012 35.4228 50.3224C37.6434 50.7517 39.864 51.0758 42.1177 51.3107C43.1413 51.416 44.1567 51.4889 45.1803 51.578C46.5259 51.6914 47.8715 51.7643 49.2171 51.7886C51.7845 51.821 54.36 51.8453 56.9357 51.6752C57.8107 51.6185 58.694 51.5618 59.569 51.497C61.0302 51.3917 62.4914 51.2297 63.936 51.0677C66.0989 50.8085 68.2369 50.4844 70.3585 50.0794C74.3622 49.3099 78.3082 48.3216 82.1716 47.0175C85.4324 45.9077 88.6189 44.6198 91.6898 43.0726C94.4057 41.6875 97.0061 40.116 99.4166 38.261C101.257 36.8435 102.966 35.2882 104.427 33.4818C104.584 33.5304 104.774 33.6681 104.964 33.8058Z" fill="#158B3B"/>
<path id="Vector_2" d="M19.1767 21.8335V26.1672H18.83C18.7226 25.341 18.508 24.6768 18.2273 24.1907C17.9301 23.7047 17.5174 23.3078 16.9808 23.0162C16.4442 22.7246 15.8911 22.5869 15.305 22.5869C14.6529 22.5869 14.1163 22.7894 13.687 23.1701C13.2577 23.567 13.0431 24.0125 13.0431 24.4985C13.0431 24.8793 13.1752 25.2357 13.4476 25.5435C13.8439 26.0052 14.7684 26.6127 16.2213 27.3985C17.4101 28.0303 18.2273 28.5082 18.6649 28.8403C19.1024 29.1805 19.4408 29.5775 19.672 30.0311C19.9114 30.4847 20.027 30.9626 20.027 31.4648C20.027 32.4126 19.6472 33.2388 18.896 33.9111C18.1448 34.5997 17.1872 34.9399 15.9984 34.9399C15.627 34.9399 15.272 34.9156 14.95 34.8589C14.7602 34.8265 14.3557 34.7212 13.7365 34.5187C13.1174 34.3243 12.7377 34.2271 12.5726 34.2271C12.4157 34.2271 12.2919 34.2757 12.2011 34.3648C12.102 34.462 12.0442 34.6402 12.003 34.9318H11.6562V30.6305H12.003C12.1681 31.5296 12.3827 32.202 12.6551 32.6475C12.9275 33.093 13.3568 33.4656 13.9264 33.7653C14.496 34.057 15.1151 34.2109 15.7921 34.2109C16.5763 34.2109 17.1954 34.0164 17.6577 33.6033C18.1118 33.1983 18.3346 32.7204 18.3346 32.1696C18.3346 31.8699 18.2521 31.5539 18.0705 31.238C17.8971 30.9221 17.633 30.6305 17.2615 30.3632C17.0138 30.1769 16.3452 29.78 15.2555 29.1886C14.1658 28.5811 13.3898 28.1032 12.9275 27.7549C12.4653 27.3904 12.1185 27.0097 11.8791 26.5803C11.6397 26.151 11.5242 25.6731 11.5242 25.1628C11.5242 24.2636 11.8791 23.486 12.5808 22.8461C13.2825 22.1899 14.1741 21.8659 15.2637 21.8659C15.9407 21.8659 16.6671 22.0279 17.4101 22.352C17.765 22.5059 18.0044 22.5869 18.1613 22.5869C18.3264 22.5869 18.4585 22.5383 18.5658 22.4492C18.6731 22.352 18.7557 22.1575 18.8134 21.8659L19.1767 21.8335Z" fill="#38418E"/>
<path id="Vector_3" d="M28.4142 24.9036V24.6282H32.0464V24.9036H31.6667C31.2622 24.9036 30.9567 25.0656 30.7421 25.4058C30.6348 25.5597 30.5853 25.9161 30.5853 26.475V30.5495C30.5853 31.562 30.4779 32.3397 30.2798 32.8905C30.0734 33.4494 29.6772 33.9273 29.0828 34.3243C28.4885 34.7212 27.6712 34.9156 26.6476 34.9156C25.5331 34.9156 24.6746 34.7293 24.0967 34.3486C23.5106 33.9678 23.1144 33.4494 22.8585 32.8095C22.6934 32.364 22.6191 31.5377 22.6191 30.3308V26.4021C22.6191 25.7865 22.5365 25.3734 22.3549 25.1871C22.1733 24.9927 21.9009 24.8955 21.5129 24.8955H21.1166V24.6201H25.5414V24.8955H25.1616C24.7324 24.8955 24.4352 25.0251 24.2618 25.2924C24.1298 25.4706 24.072 25.8432 24.072 26.4021V30.7844C24.072 31.1813 24.105 31.6268 24.1793 32.121C24.2536 32.6232 24.3774 33.0201 24.5673 33.2955C24.7571 33.579 25.0296 33.8058 25.401 33.9921C25.756 34.1785 26.21 34.2676 26.7301 34.2676C27.3905 34.2676 28.0014 34.1299 28.538 33.8382C29.0746 33.5466 29.4295 33.1902 29.6194 32.7285C29.8093 32.283 29.9001 31.5296 29.9001 30.4604V26.3859C29.9001 25.7541 29.8258 25.3572 29.6855 25.2114C29.4791 24.9927 29.1984 24.8874 28.8104 24.8874L28.4142 24.9036Z" fill="#38418E"/>
<path id="Vector_4" d="M35.6869 29.9825V32.9067C35.6869 33.5385 35.7612 33.9273 35.9016 34.0812C36.0914 34.3 36.3886 34.4053 36.7684 34.4053H37.1564V34.6888H32.7646V34.4053H33.1444C33.5819 34.4053 33.8956 34.2676 34.0689 33.984C34.1763 33.8301 34.2258 33.4737 34.2258 32.8905V26.394C34.2258 25.7622 34.1515 25.3653 34.0277 25.2195C33.8295 25.0008 33.5406 24.8955 33.1526 24.8955H32.7729V24.6201H36.5207C37.437 24.6201 38.1552 24.7173 38.6918 24.8955C39.2284 25.0818 39.6659 25.3977 40.0374 25.8432C40.4089 26.2887 40.5822 26.8071 40.5822 27.4066C40.5822 28.2247 40.3098 28.897 39.7485 29.4074C39.2036 29.9177 38.4194 30.1769 37.4123 30.1769C37.1646 30.1769 36.9004 30.1607 36.6198 30.1283C36.3143 30.104 36.0089 30.0554 35.6869 29.9825ZM35.6869 29.5694C35.9511 29.618 36.1823 29.6504 36.3969 29.6828C36.595 29.7071 36.7766 29.7152 36.9335 29.7152C37.4535 29.7152 37.9076 29.5208 38.2873 29.1238C38.667 28.7269 38.8569 28.2166 38.8569 27.5767C38.8569 27.1474 38.7661 26.7342 38.5845 26.3616C38.4029 25.989 38.147 25.7055 37.8168 25.5192C37.4866 25.3329 37.1068 25.2438 36.6858 25.2438C36.4217 25.2438 36.108 25.2924 35.7035 25.3815L35.6869 29.5694Z" fill="#38418E"/>
<path id="Vector_5" d="M44.6603 25.1871V29.1562H46.9139C47.5 29.1562 47.888 29.0752 48.0862 28.897C48.3503 28.6621 48.4907 28.2652 48.5237 27.6982H48.8126V31.1894H48.5237C48.4494 30.7034 48.3833 30.3875 48.309 30.2417C48.21 30.0635 48.0696 29.942 47.855 29.8367C47.6569 29.7314 47.3349 29.6828 46.9057 29.6828H44.652V33.0039C44.652 33.4494 44.6768 33.7167 44.7098 33.822C44.7428 33.9111 44.8171 34.0002 44.9244 34.0569C45.0235 34.1136 45.2216 34.1379 45.494 34.1379H47.2276C47.8055 34.1379 48.2265 34.1055 48.4824 34.0245C48.7466 33.9435 48.9942 33.7896 49.2419 33.5628C49.5473 33.2631 49.8693 32.7933 50.1995 32.1777H50.4967L49.6216 34.6888H41.7297V34.4134H42.1012C42.3406 34.4134 42.58 34.3567 42.7864 34.2433C42.9515 34.1622 43.0588 34.0407 43.1166 33.8787C43.1743 33.7167 43.1991 33.4008 43.1991 32.9148V26.3778C43.1991 25.7379 43.1248 25.3491 42.9927 25.2033C42.8194 25.0089 42.5057 24.9117 42.0929 24.9117H41.7214V24.6362H49.6134L49.7289 26.8395H49.4317C49.3244 26.313 49.2089 25.9404 49.0768 25.746C48.9447 25.5435 48.7548 25.3977 48.5072 25.2924C48.3008 25.2195 47.9458 25.179 47.4423 25.179L44.6603 25.1871Z" fill="#38418E"/>
<path id="Vector_6" d="M61.6493 34.6888H58.9169L55.4497 29.9825C55.1856 29.9906 54.9874 29.9906 54.8223 29.9906H54.6077C54.5334 29.9906 54.4509 29.9825 54.3683 29.9825V32.9067C54.3683 33.5385 54.4426 33.9273 54.5829 34.0812C54.7728 34.3 55.0535 34.4053 55.4497 34.4053H55.8542V34.6888H51.4625V34.4053H51.8422C52.2715 34.4053 52.5935 34.2676 52.7668 33.984C52.8741 33.8301 52.9237 33.4737 52.9237 32.8905V26.394C52.9237 25.7622 52.8494 25.3734 52.709 25.2195C52.5109 25.0008 52.222 24.8955 51.834 24.8955H51.4543V24.6201H55.1938C56.2835 24.6201 57.0842 24.7011 57.6043 24.855C58.1161 25.0089 58.5537 25.3005 58.9251 25.7136C59.2801 26.1348 59.47 26.637 59.47 27.2041C59.47 27.8197 59.2636 28.3543 58.8508 28.8079C58.4381 29.2615 57.8107 29.5856 56.9439 29.7719L59.0572 32.6637C59.5443 33.3279 59.957 33.7734 60.3037 33.984C60.6505 34.2027 61.0962 34.3486 61.6658 34.4053L61.6493 34.6888ZM54.3766 29.5289H54.6242H54.7976C55.7717 29.5289 56.5064 29.3182 57.0017 28.9132C57.497 28.492 57.7529 27.9736 57.7529 27.3337C57.7529 26.7018 57.5548 26.1915 57.1503 25.8108C56.7458 25.4139 56.2257 25.2195 55.557 25.2195C55.2599 25.2195 54.8719 25.2681 54.3683 25.3572V29.5289" fill="#38418E"/>
<path id="Vector_7" d="M68.1544 34.6888L64.1919 26.232V32.9553C64.1919 33.5709 64.2662 33.9597 64.3983 34.1056C64.5882 34.3162 64.8853 34.4215 65.2733 34.4215H65.6448V34.6969H62.0868V34.4215H62.4583C62.8876 34.4215 63.193 34.2919 63.3829 34.0408C63.4902 33.8787 63.548 33.5142 63.548 32.9553V26.3859C63.548 25.9404 63.4985 25.6164 63.3912 25.422C63.3169 25.2843 63.1848 25.1547 62.9949 25.0575C62.805 24.9603 62.5079 24.9198 62.0786 24.9198V24.6444H64.9761L68.691 32.5098L72.348 24.6444H75.2455V24.9198H74.8906C74.453 24.9198 74.1394 25.0494 73.966 25.3005C73.8587 25.4625 73.8009 25.827 73.8009 26.3859V32.9553C73.8009 33.5709 73.8752 33.9597 74.0155 34.1056C74.2054 34.3162 74.5026 34.4215 74.8906 34.4215H75.2455V34.6969H70.8868V34.4215H71.2583C71.6958 34.4215 72.0095 34.2919 72.1829 34.0408C72.2902 33.8787 72.348 33.5142 72.348 32.9553V26.232L68.3938 34.6888H68.1544" fill="#38418E"/>
<path id="Vector_8" d="M80.6692 34.4134V34.6969H76.2774V34.4134H76.6406C77.0699 34.4134 77.3754 34.3 77.5652 34.0488C77.6808 33.8868 77.7468 33.5142 77.7468 32.9067V26.4102C77.7468 25.8999 77.7138 25.5597 77.656 25.3977C77.6065 25.2681 77.4992 25.1628 77.3423 25.0818C77.1194 24.9684 76.8883 24.9117 76.6406 24.9117H76.2774V24.6282H80.6692V24.9117H80.2977C79.8849 24.9117 79.5712 25.0251 79.3814 25.2681C79.2493 25.4301 79.1915 25.8027 79.1915 26.4102V32.9067C79.1915 33.417 79.2245 33.7572 79.2823 33.9192C79.3318 34.0488 79.4391 34.1541 79.6042 34.2352C79.8189 34.3486 80.0583 34.4134 80.2894 34.4134H80.6692Z" fill="#38418E"/>
<path id="Vector_9" d="M90.6744 24.4094L90.9138 27.8197H90.6744C90.3607 26.799 89.9149 26.0619 89.3288 25.6083C88.751 25.1547 88.0575 24.936 87.2403 24.936C86.5633 24.936 85.9442 25.1142 85.3994 25.4463C84.8545 25.7865 84.417 26.3211 84.1033 27.0664C83.7814 27.8116 83.6245 28.735 83.6245 29.8286C83.6245 30.7358 83.7814 31.5296 84.0785 32.1939C84.3757 32.8581 84.8298 33.3684 85.4159 33.7329C86.0102 34.0975 86.6954 34.2676 87.4549 34.2676C88.1236 34.2676 88.7014 34.1299 89.2132 33.8463C89.7251 33.5709 90.2782 33.012 90.889 32.1777L91.1284 32.3316C90.6166 33.2307 90.014 33.8787 89.3206 34.3C88.6271 34.7212 87.8264 34.9156 86.877 34.9156C85.1765 34.9156 83.8639 34.3 82.9393 33.0606C82.2376 32.1372 81.8909 31.0598 81.8909 29.8124C81.8909 28.8079 82.1138 27.8926 82.5761 27.0502C83.0384 26.2077 83.6658 25.5597 84.4665 25.0899C85.2755 24.6282 86.1506 24.3932 87.0999 24.3932C87.8346 24.3932 88.5693 24.5634 89.2958 24.9279C89.5104 25.0332 89.6673 25.0899 89.7498 25.0899C89.8819 25.0899 89.9975 25.0413 90.1048 24.9522C90.2369 24.8226 90.3277 24.6363 90.3855 24.3932H90.6579" fill="#38418E"/>
<path id="Vector_10" d="M102.446 34.6888H99.7138L96.2466 29.9825C95.9824 29.9906 95.7843 29.9906 95.6192 29.9906H95.4046C95.3303 29.9906 95.2477 29.9825 95.1652 29.9825V32.9067C95.1652 33.5385 95.2395 33.9354 95.3798 34.0812C95.5697 34.3 95.8503 34.4053 96.2466 34.4053H96.6511V34.6807H92.2594V34.4053H92.6391C93.0766 34.4053 93.3903 34.2676 93.5637 33.984C93.671 33.8301 93.7205 33.4737 93.7205 32.8905V26.394C93.7205 25.7622 93.6462 25.3653 93.5059 25.2195C93.2995 25.0008 93.0188 24.8955 92.6308 24.8955H92.2511V24.6201H95.9824C97.0721 24.6201 97.8729 24.7011 98.3929 24.855C98.9047 25.0089 99.3423 25.3005 99.7138 25.7136C100.069 26.1348 100.259 26.637 100.259 27.2041C100.259 27.8197 100.06 28.3543 99.6395 28.8079C99.2267 29.2615 98.5911 29.5856 97.7243 29.7719L99.8376 32.6637C100.325 33.3279 100.737 33.7734 101.084 33.984C101.431 34.2027 101.877 34.3486 102.446 34.4053V34.6888V34.6888ZM95.1734 29.5208H95.4211H95.5944C96.5685 29.5208 97.3032 29.3101 97.7986 28.9051C98.2939 28.4839 98.5498 27.9574 98.5498 27.3175C98.5498 26.6856 98.3517 26.1753 97.9472 25.7946C97.5426 25.3977 97.0226 25.2033 96.3539 25.2033C96.0567 25.2033 95.6687 25.2519 95.1652 25.341V29.5208H95.1734Z" fill="#38418E"/>
<path id="Vector_11" d="M108.266 23.7533C111.403 23.7533 113.954 26.2482 113.954 29.3344C113.954 32.4126 111.411 34.9156 108.266 34.9156C105.129 34.9156 102.578 32.4207 102.578 29.3344C102.578 26.2563 105.121 23.7533 108.266 23.7533Z" fill="#DC281A"/>
</g>
</svg>
